<svg xmlns="http://www.w3.org/2000/svg" aria-hidden="true" style="display:block;height:32px;width:32px;fill:currentcolor" viewBox="0 0 32 32"><path d="M29 5a2 2 0 0 1 1.995 1.85L31 7v18a2 2 0 0 1-1.85 1.995L29 27H3a2 2 0 0 1-1.995-1.85L1 25V7a2 2 0 0 1 1.85-1.995L3 5zm0 2H3v18h26zm-3 12v2h-8v-2zm-16-8a3 3 0 0 1 2.495 4.667A4.995 4.995 0 0 1 15 20h-2a3.001 3.001 0 0 0-2-2.829V14a1 1 0 0 0-1.993-.117L9 14v3.17A3.001 3.001 0 0 0 7 20H5a4.998 4.998 0 0 1 2.506-4.334A3 3 0 0 1 10 11zm16 4v2h-8v-2zm0-4v2h-8v-2z"/></svg>