<svg width="84" height="44" viewBox="0 0 84 44" fill="none" xmlns="http://www.w3.org/2000/svg">
<rect x="0.5" y="0.5" width="83" height="43" rx="21.5" fill="white"/>
<line x1="20" y1="17.3" x2="32" y2="17.3" stroke="#222222" stroke-width="1.4"/>
<line x1="20" y1="21.3" x2="32" y2="21.3" stroke="#222222" stroke-width="1.4"/>
<line x1="20" y1="25.3" x2="32" y2="25.3" stroke="#222222" stroke-width="1.4"/>
<g clip-path="url(#clip0_3_23)">
<path d="M60 6.70001C51.563 6.70001 44.7 13.563 44.7 22C44.7 30.437 51.563 37.3 60 37.3C68.437 37.3 75.3 30.437 75.3 22C75.3 13.563 68.437 6.70001 60 6.70001V6.70001ZM60 34.7C55.979 34.7 52.395 32.816 50.067 29.89C51.6886 27.7682 53.9507 26.2253 56.518 25.49C55.5936 24.9028 54.8324 24.0918 54.3048 23.1321C53.7773 22.1724 53.5004 21.0951 53.5 20C53.5 16.416 56.416 13.5 60 13.5C63.584 13.5 66.5 16.416 66.5 20C66.4991 21.0953 66.222 22.1727 65.6943 23.1324C65.1666 24.0922 64.4053 24.9034 63.481 25.491C66.0488 26.2258 68.3114 27.7688 69.933 29.891C67.605 32.816 64.021 34.7 60 34.7Z" fill="#717171"/>
<circle cx="72" cy="12" r="4.5" fill="#FF385C" stroke="white"/>
</g>
<rect x="0.5" y="0.5" width="83" height="43" rx="21.5" stroke="#DDDDDD"/>
<defs>
<clipPath id="clip0_3_23">
<rect width="32" height="32" fill="white" transform="translate(44 6)"/>
</clipPath>
</defs>
</svg>
