<svg width="24" height="25" viewBox="0 0 24 25" fill="none" xmlns="http://www.w3.org/2000/svg">
<path d="M19.5 3.79999C19.8784 3.79987 20.2429 3.94279 20.5204 4.20011C20.7979 4.45743 20.9679 4.81012 20.9963 5.18749L21 5.29999V11.1792L22.3845 15.332C22.4226 15.4465 22.4515 15.5639 22.4708 15.683L22.4932 15.863L22.5 16.043V23.3H21V21.8H3V23.3H1.5V16.0437C1.50001 15.8625 1.52192 15.682 1.56525 15.506L1.6155 15.332L3 11.177V5.29999C2.99998 4.94153 3.12833 4.59492 3.36181 4.32293C3.59528 4.05094 3.91843 3.87154 4.27275 3.81724L4.38825 3.80374L4.5 3.79999H19.5ZM21 17.3H3V20.3H21V17.3ZM19.959 12.8H4.04025L3.0405 15.8H20.9587L19.959 12.8ZM19.5 5.29999H4.5V11.3H6V8.29999C5.99988 7.92156 6.1428 7.55706 6.40012 7.27958C6.65744 7.00209 7.01013 6.83212 7.3875 6.80374L7.5 6.79999H16.5C16.8784 6.79987 17.2429 6.94279 17.5204 7.20011C17.7979 7.45743 17.9679 7.81012 17.9963 8.18749L18 8.29999V11.3H19.5V5.29999ZM11.25 8.29999H7.5V11.3H11.25V8.29999ZM16.5 8.29999H12.75V11.3H16.5V8.29999Z" fill="#222222"/>
</svg>
