<svg width="20" height="21" viewBox="0 0 20 21" fill="none" xmlns="http://www.w3.org/2000/svg">
<g clip-path="url(#clip0_24_10230)">
<path d="M1.25 20.175C1.08424 20.175 0.92527 20.1092 0.80806 19.992C0.690849 19.8748 0.625001 19.7158 0.625001 19.55C0.623954 18.1116 1.17396 16.7275 2.16196 15.6822C3.14996 14.6368 4.50089 14.0097 5.93703 13.9296C7.37317 13.8496 8.78541 14.3228 9.88344 15.2519C10.9815 16.181 11.6819 17.4954 11.8406 18.925H13.125C13.585 18.925 14.0175 18.7594 14.3569 18.4631C14.5431 18.3013 14.6953 18.1042 14.805 17.8833C14.9146 17.6623 14.9794 17.4218 14.9956 17.1756L15 17.05V9.55002H8.125V13.3H6.875V8.92502C6.87502 8.77193 6.93122 8.62418 7.03295 8.50978C7.13467 8.39539 7.27485 8.3223 7.42688 8.30439L7.5 8.30002H15.625C15.7781 8.30004 15.9258 8.35624 16.0402 8.45796C16.1546 8.55969 16.2277 8.69986 16.2456 8.85189L16.25 8.92502V10.175H18.75C18.9031 10.175 19.0508 10.2312 19.1652 10.333C19.2796 10.4347 19.3527 10.5749 19.3706 10.7269L19.375 10.8V16.425C19.375 16.5781 19.3188 16.7259 19.2171 16.8403C19.1153 16.9546 18.9752 17.0277 18.8231 17.0456L18.75 17.05H16.25C16.2504 17.4964 16.1549 17.9376 15.9701 18.3438C15.7853 18.7501 15.5154 19.112 15.1788 19.405C14.6524 19.8653 13.9864 20.1349 13.2881 20.1706L13.125 20.175H1.25ZM3.65625 16.0269C2.79783 16.6585 2.19937 17.5817 1.97313 18.6231L1.93688 18.8113L1.91938 18.925H4.48375L3.65625 16.0269ZM6.25 15.175C5.73563 15.175 5.2425 15.2638 4.78375 15.4269L5.78375 18.925H6.71563L7.71563 15.4263C7.34213 15.2937 6.95228 15.2128 6.55688 15.1856L6.40063 15.1775L6.25 15.175ZM8.84438 16.0269L8.01563 18.925H10.58L10.5631 18.8113C10.372 17.6957 9.75592 16.6977 8.84438 16.0269ZM18.125 11.425H16.25V15.8H18.125V11.425ZM12.4963 1.42502C12.495 2.71377 12.2019 3.51502 11.3931 4.81502L10.9225 5.55439C10.3813 6.42377 10.1238 6.99252 10.0363 7.67502H8.77688C8.87063 6.66689 9.21938 5.90252 9.97063 4.72002L10.3225 4.17002C11.02 3.05002 11.2456 2.42939 11.2463 1.42377L12.4963 1.42502ZM15.6213 1.42502C15.62 2.71377 15.3269 3.51502 14.5181 4.81502L14.0475 5.55439C13.5063 6.42377 13.2488 6.99252 13.1613 7.67502H11.9019C11.9956 6.66689 12.3444 5.90252 13.0956 4.72002L13.4475 4.17002C14.145 3.05002 14.3706 2.42939 14.3713 1.42377L15.6213 1.42502Z" fill="#222222"/>
</g>
<defs>
<clipPath id="clip0_24_10230">
<rect width="20" height="20" fill="white" transform="translate(0 0.799988)"/>
</clipPath>
</defs>
</svg>
