<svg width="20" height="21" viewBox="0 0 20 21" fill="none" xmlns="http://www.w3.org/2000/svg">
<g clip-path="url(#clip0_24_10217)">
<path d="M7.29172 0.800049L7.29112 1.8413H12.708L12.7083 0.800049H13.9583L13.958 1.8413L17.7084 1.84169C18.3674 1.84169 18.9073 2.35161 18.955 2.9984L18.9584 3.09169V13.0411C18.9584 13.3358 18.8544 13.6198 18.6666 13.8439L18.5923 13.925L13.125 19.3924C12.9166 19.6006 12.6423 19.7278 12.3511 19.7535L12.2412 19.7584H4.16675C2.48628 19.7584 1.11561 18.4319 1.04464 16.7689L1.04175 16.6334V3.09169C1.04175 2.43271 1.55167 1.89284 2.19846 1.84512L2.29175 1.84169L6.04112 1.8413L6.04172 0.800049L7.29172 0.800049ZM17.708 8.0913H2.29175V16.6334C2.29175 17.6319 3.07233 18.4481 4.05658 18.5052L4.16675 18.5084L11.0411 18.5082L11.0417 14.9667C11.0417 13.2862 12.3682 11.9155 14.0312 11.8446L14.1668 11.8417L17.708 11.8413V8.0913ZM17.6574 13.0913L14.1668 13.0917C13.1682 13.0917 12.3519 13.8723 12.2949 14.8565L12.2917 14.9667L12.2911 18.4582L17.6574 13.0913ZM6.04112 3.0913L2.29175 3.09169V6.8413H17.708L17.7084 3.09169L13.958 3.0913L13.9583 4.13338H12.7083L12.708 3.0913H7.29112L7.29172 4.13338H6.04172L6.04112 3.0913Z" fill="#222222"/>
</g>
<defs>
<clipPath id="clip0_24_10217">
<rect width="20" height="20" fill="white" transform="translate(0 0.800049)"/>
</clipPath>
</defs>
</svg>
