<svg width="20" height="20" viewBox="0 0 20 20" fill="none" xmlns="http://www.w3.org/2000/svg">
<path d="M8.75006 16.675L8.74694 16.8C8.71602 17.4184 8.45671 18.0034 8.01922 18.4416C7.58173 18.8797 6.99719 19.14 6.37881 19.1719L6.25006 19.175H2.50006V17.925H6.25006L6.34381 17.9219C6.64142 17.8995 6.9212 17.7714 7.13258 17.5607C7.34396 17.35 7.47298 17.0707 7.49631 16.7731L7.50006 16.675H8.75006ZM6.25006 0.42499C6.58506 0.42499 6.91694 0.454365 7.23756 0.51124L7.47506 0.559365L18.3801 2.83437C18.6438 2.88935 18.8828 3.02809 19.0613 3.22992C19.2398 3.43174 19.3483 3.68585 19.3707 3.95437L19.3751 4.05812V8.04187C19.375 8.31129 19.2879 8.57348 19.1268 8.78939C18.9656 9.00529 18.739 9.16334 18.4807 9.23999L18.3807 9.26499L9.90944 11.0312L11.0138 15.0975C11.0617 15.2738 11.0703 15.4585 11.0391 15.6385C11.0078 15.8186 10.9375 15.9896 10.8331 16.1395C10.7286 16.2894 10.5926 16.4146 10.4345 16.5063C10.2764 16.5979 10.1002 16.6538 9.91819 16.67L9.80756 16.675H7.35006C7.09365 16.675 6.84344 16.5961 6.63337 16.4491C6.42329 16.3021 6.26351 16.094 6.17569 15.8531L6.14569 15.7594L4.97069 11.5287C3.62537 11.2158 2.44222 10.4189 1.64669 9.28975C0.851161 8.16063 0.49888 6.77828 0.656979 5.40614C0.815078 4.03399 1.4725 2.76798 2.50397 1.84936C3.53544 0.930746 4.86884 0.423749 6.25006 0.42499ZM9.80756 15.425L8.68319 11.2869L7.55444 11.5231C7.21327 11.604 6.8653 11.6527 6.51506 11.6687L6.30819 11.6737L7.35006 15.425H9.80756ZM6.25006 1.67499C5.64075 1.67526 5.03822 1.80279 4.48105 2.04943C3.92389 2.29606 3.42439 2.65636 3.01455 3.10724C2.60471 3.55812 2.29357 4.08963 2.10106 4.66773C1.90856 5.24583 1.83892 5.85777 1.89663 6.46434C1.95434 7.07091 2.13811 7.65874 2.43617 8.19017C2.73424 8.72159 3.14002 9.1849 3.62752 9.55041C4.11503 9.91592 4.67351 10.1756 5.26718 10.3127C5.86086 10.4499 6.47663 10.4615 7.07506 10.3469L7.28194 10.3031L18.1251 8.04187V4.05812L7.21131 1.78062C6.89576 1.71013 6.57339 1.67471 6.25006 1.67499ZM6.25006 2.92499C7.07886 2.92499 7.87372 3.25423 8.45977 3.84028C9.04582 4.42633 9.37506 5.22119 9.37506 6.04999C9.37506 6.87879 9.04582 7.67365 8.45977 8.2597C7.87372 8.84575 7.07886 9.17499 6.25006 9.17499C5.42126 9.17499 4.6264 8.84575 4.04035 8.2597C3.4543 7.67365 3.12506 6.87879 3.12506 6.04999C3.12506 5.22119 3.4543 4.42633 4.04035 3.84028C4.6264 3.25423 5.42126 2.92499 6.25006 2.92499ZM6.25006 4.17499C5.75278 4.17499 5.27587 4.37253 4.92424 4.72417C4.57261 5.0758 4.37506 5.55271 4.37506 6.04999C4.37506 6.54727 4.57261 7.02419 4.92424 7.37582C5.27587 7.72745 5.75278 7.92499 6.25006 7.92499C6.74734 7.92499 7.22426 7.72745 7.57589 7.37582C7.92752 7.02419 8.12506 6.54727 8.12506 6.04999C8.12506 5.55271 7.92752 5.0758 7.57589 4.72417C7.22426 4.37253 6.74734 4.17499 6.25006 4.17499Z" fill="#222222"/>
</svg>
