<svg width="20" height="20" viewBox="0 0 20 20" fill="none" xmlns="http://www.w3.org/2000/svg">
<path d="M9.37372 0.445002C9.1507 0.573548 8.97281 0.767811 8.86434 1.00125L6.61059 5.855L1.21934 6.55C1.05649 6.57098 0.899362 6.62383 0.756941 6.70555C0.61452 6.78727 0.489594 6.89625 0.389301 7.02626C0.289007 7.15627 0.215311 7.30476 0.172422 7.46326C0.129533 7.62176 0.118293 7.78716 0.139342 7.95L0.158717 8.05938C0.215138 8.31394 0.349753 8.54449 0.543717 8.71875L4.51872 12.2975L3.44622 17.6775C3.38147 18.0026 3.44847 18.34 3.63248 18.6157C3.81649 18.8913 4.10244 19.0826 4.42747 19.1475L4.53997 19.165C4.80386 19.193 5.06982 19.1363 5.29934 19.0031L9.99872 16.2794L14.6987 19.0031C14.8407 19.0855 14.9976 19.1391 15.1604 19.1609C15.3231 19.1826 15.4885 19.1721 15.6472 19.1299C15.8059 19.0877 15.9547 19.0147 16.0852 18.915C16.2156 18.8153 16.3251 18.6908 16.4075 18.5487L16.46 18.4475C16.5714 18.2071 16.6036 17.9374 16.5518 17.6775L15.4787 12.2975L19.4543 8.71875C19.5764 8.60891 19.6756 8.4761 19.7463 8.32791C19.8169 8.17972 19.8578 8.01906 19.8663 7.8551C19.8749 7.69114 19.8511 7.52709 19.7963 7.37233C19.7415 7.21757 19.6567 7.07512 19.5468 6.95313L19.4687 6.87375C19.2779 6.69652 19.0364 6.58333 18.7781 6.55L13.3862 5.85438L11.1325 1.00125C10.9928 0.700686 10.7394 0.467908 10.4281 0.354103C10.1168 0.240298 9.77308 0.254784 9.47247 0.394377L9.37372 0.445002ZM7.45497 7.00688L9.99872 1.52813L12.5425 7.00688L18.6175 7.78938L14.1137 11.845L15.325 17.9219L9.99809 14.8344L4.67184 17.9219L5.88372 11.845L1.37934 7.78938L7.45497 7.00688Z" fill="#222222"/>
</svg>
