<svg xmlns="http://www.w3.org/2000/svg" width="40" height="40" data-name="Слой 1" viewBox="0 -1.05 48.095 48.095"><path d="M9 0a1 1 0 0 0-1 1v3.484L1.418 9.186A1 1 0 0 0 1 10v4a1 1 0 0 0 1 1h22a1 1 0 0 0 1-1v-4a1 1 0 0 0-.418-.814L18 4.486V1a1 1 0 0 0-1-1H9zm1 2h6v3a1 1 0 0 0 .418.814l6.582 4.7V13H3v-2.486l6.582-4.7A1 1 0 0 0 10 5V2zM5.5 21c-.654 0-1.202.418-1.408 1H1a1 1 0 0 0-1 1v22a1 1 0 0 0 1 1h46.096a1 1 0 0 0 1-1V23a1 1 0 0 0-1-1H21.908c-.206-.582-.754-1-1.408-1h-15zM2 24h22.096v20H2V24zm24.096 0h20v6h-20v-6zM5 26a1 1 0 0 0-1 1v14a1 1 0 0 0 1 1h16a1 1 0 0 0 1-1V27a1 1 0 0 0-1-1H5zm25 0a1 1 0 1 0 0 2h12a1 1 0 1 0 0-2H30zM6 28h14v12H6V28zm20.096 4h20v12h-20V32zm3.888 2.986A1 1 0 0 0 29 36v5a1 1 0 1 0 2 0v-5a1 1 0 0 0-1.016-1.014z"/></svg>