<svg width="102" height="33" viewBox="0 0 102 33" fill="none" xmlns="http://www.w3.org/2000/svg">
<path d="M29.4494 23.1317C29.3059 22.7289 29.1382 22.3392 28.9787 21.9781C28.7331 21.4227 28.4759 20.8662 28.2271 20.3283L28.2074 20.2856C25.9885 15.4805 23.6069 10.6097 21.1289 5.80864L21.0237 5.60479C20.7709 5.11452 20.5096 4.60759 20.2414 4.10949C19.9234 3.47913 19.5375 2.88523 19.0906 2.33831C18.5875 1.73814 17.9586 1.25545 17.2483 0.924285C16.538 0.593117 15.7635 0.421532 14.9795 0.421631C14.1955 0.421729 13.4211 0.593508 12.7108 0.924855C12.0006 1.2562 11.3718 1.73905 10.8689 2.33934C10.4225 2.88639 10.0368 3.48016 9.71871 4.11021C9.4482 4.61278 9.18444 5.12441 8.92939 5.6192L8.83171 5.80859C6.3536 10.61 3.97202 15.4808 1.75314 20.2855L1.72081 20.3554C1.47633 20.8846 1.22356 21.4318 0.982061 21.9779C0.822478 22.3387 0.654997 22.7281 0.511343 23.1319C0.0998946 24.232 -0.0312157 25.4169 0.129798 26.5801C0.30055 27.7556 0.775996 28.8663 1.50905 29.802C2.2421 30.7377 3.20733 31.466 4.30913 31.9148C5.14134 32.2515 6.03117 32.4236 6.92915 32.4216C7.21123 32.4215 7.49307 32.4051 7.77326 32.3725C8.90899 32.2278 10.0043 31.8582 10.9951 31.2855C12.2947 30.5554 13.5782 29.4854 14.9803 27.9564C16.3824 29.4854 17.6659 30.5554 18.9655 31.2855C19.9562 31.8583 21.0516 32.2278 22.1873 32.3725C22.4675 32.4051 22.7494 32.4215 23.0315 32.4216C23.9294 32.4236 24.8191 32.2515 25.6513 31.9148C26.7531 31.466 27.7184 30.7377 28.4515 29.802C29.1846 28.8663 29.6601 27.7557 29.8309 26.5801C29.9917 25.4168 29.8606 24.2319 29.4494 23.1317ZM14.9803 24.7986C13.2446 22.5985 12.1308 20.5554 11.74 18.8426C11.5799 18.2008 11.5421 17.5347 11.6286 16.8789C11.6969 16.3982 11.8735 15.9392 12.1451 15.5364C12.4793 15.103 12.9088 14.752 13.4004 14.5105C13.892 14.2691 14.4326 14.1435 14.9805 14.1435C15.5285 14.1436 16.069 14.2692 16.5606 14.5108C17.0522 14.7523 17.4816 15.1033 17.8158 15.5367C18.0874 15.9397 18.264 16.3987 18.3323 16.8795C18.4186 17.5356 18.3807 18.2019 18.2203 18.8439C17.8291 20.5565 16.7156 22.599 14.9803 24.7986ZM27.8036 26.2905C27.6842 27.1124 27.3517 27.889 26.8392 28.5432C26.3266 29.1975 25.6517 29.7068 24.8813 30.0206C24.1023 30.3327 23.2569 30.4433 22.4237 30.3421C21.5576 30.2305 20.7229 29.9455 19.9699 29.504C18.8131 28.8541 17.6421 27.8564 16.3244 26.3928C18.4221 23.8062 19.732 21.4221 20.217 19.2986C20.4353 18.4056 20.4826 17.4795 20.3565 16.5691C20.2421 15.7848 19.9509 15.0366 19.5049 14.3809C18.9824 13.6735 18.3008 13.0984 17.515 12.7021C16.7291 12.3058 15.861 12.0993 14.9805 12.0993C14.1001 12.0993 13.2319 12.3057 12.446 12.7019C11.6601 13.0981 10.9785 13.6731 10.456 14.3805C10.0101 15.036 9.7189 15.784 9.60439 16.5681C9.47823 17.4782 9.52529 18.4038 9.7431 19.2965C10.2278 21.4209 11.5378 23.8056 13.6362 26.393C12.3185 27.8564 11.1475 28.8541 9.99068 29.5041C9.23767 29.9455 8.40306 30.2306 7.53694 30.3421C6.70364 30.4433 5.85824 30.3327 5.07919 30.0206C4.3088 29.7068 3.63391 29.1975 3.12137 28.5433C2.60884 27.889 2.27644 27.1124 2.1571 26.2905C2.04231 25.455 2.14 24.6041 2.44117 23.8162C2.55565 23.4944 2.68962 23.1786 2.85559 22.8034C3.09039 22.2726 3.33956 21.7331 3.58058 21.2114L3.61295 21.1413C5.81942 16.3635 8.1878 11.5198 10.6524 6.74457L10.7505 6.55446C11.0014 6.06764 11.2609 5.5643 11.5227 5.07793C11.7731 4.57664 12.0762 4.10334 12.4269 3.66603C12.7376 3.29066 13.1276 2.98844 13.5689 2.78097C14.0103 2.57349 14.4921 2.46589 14.9799 2.46585C15.4677 2.46581 15.9496 2.57334 16.3909 2.78074C16.8323 2.98814 17.2223 3.2903 17.5331 3.66562C17.884 4.1026 18.1872 4.57574 18.4374 5.07701C18.6968 5.55905 18.954 6.05786 19.2028 6.54021L19.3082 6.74478C21.7727 11.5195 24.141 16.3631 26.3477 21.1417L26.3676 21.1847C26.6128 21.7152 26.8663 22.2635 27.105 22.8036C27.2712 23.1793 27.4054 23.4954 27.5196 23.816C27.8206 24.604 27.9183 25.4549 27.8036 26.2905Z" fill="#FF385C"/>
<path d="M41.4592 25.1504C40.6601 25.1504 39.925 24.9902 39.2537 24.6699C38.5825 24.3496 38.0072 23.9011 37.4957 23.3245C36.9843 22.748 36.6008 22.0753 36.3131 21.3386C36.0254 20.5698 35.8975 19.737 35.8975 18.8401C35.8975 17.9432 36.0574 17.0783 36.345 16.3095C36.6327 15.5408 37.0482 14.8681 37.5597 14.2595C38.0711 13.6829 38.6784 13.2024 39.3816 12.8821C40.0848 12.5618 40.82 12.4016 41.651 12.4016C42.4501 12.4016 43.1533 12.5618 43.7926 12.9141C44.4319 13.2345 44.9433 13.7149 45.3588 14.3235L45.4547 12.754H48.3954V24.83H45.4547L45.3588 23.0683C44.9433 23.7089 44.3999 24.2214 43.6967 24.6058C43.0574 24.9582 42.2903 25.1504 41.4592 25.1504ZM42.2264 22.2675C42.8017 22.2675 43.3131 22.1073 43.7926 21.819C44.2401 21.4987 44.5917 21.0823 44.8794 20.5698C45.1351 20.0573 45.2629 19.4487 45.2629 18.776C45.2629 18.1033 45.1351 17.4947 44.8794 16.9822C44.6237 16.4697 44.2401 16.0533 43.7926 15.733C43.3451 15.4126 42.8017 15.2845 42.2264 15.2845C41.651 15.2845 41.1396 15.4447 40.6601 15.733C40.2127 16.0533 39.8611 16.4697 39.5734 16.9822C39.3177 17.4947 39.1898 18.1033 39.1898 18.776C39.1898 19.4487 39.3177 20.0573 39.5734 20.5698C39.8291 21.0823 40.2127 21.4987 40.6601 21.819C41.1396 22.1073 41.651 22.2675 42.2264 22.2675ZM53.4137 9.48669C53.4137 9.83904 53.3498 10.1594 53.1899 10.4156C53.0301 10.6719 52.8064 10.8961 52.5187 11.0563C52.231 11.2164 51.9114 11.2805 51.5918 11.2805C51.2721 11.2805 50.9525 11.2164 50.6648 11.0563C50.3771 10.8961 50.1534 10.6719 49.9936 10.4156C49.8337 10.1273 49.7698 9.83904 49.7698 9.48669C49.7698 9.13434 49.8337 8.81402 49.9936 8.55776C50.1534 8.26947 50.3771 8.07728 50.6648 7.91712C50.9525 7.75696 51.2721 7.6929 51.5918 7.6929C51.9114 7.6929 52.231 7.75696 52.5187 7.91712C52.8064 8.07728 53.0301 8.30151 53.1899 8.55776C53.3178 8.81402 53.4137 9.10231 53.4137 9.48669ZM49.9936 24.798V12.7219H53.1899V24.798H49.9936ZM61.7243 15.8931V15.9251C61.5645 15.8611 61.3727 15.829 61.2128 15.797C61.0211 15.765 60.8612 15.765 60.6695 15.765C59.7745 15.765 59.1032 16.0212 58.6557 16.5658C58.1763 17.1103 57.9525 17.8791 57.9525 18.8721V24.798H54.7562V12.7219H57.6968L57.7927 14.5478C58.1124 13.9071 58.4959 13.4266 59.0393 13.0743C59.5507 12.7219 60.158 12.5618 60.8612 12.5618C61.085 12.5618 61.3087 12.5938 61.5005 12.6258C61.5964 12.6579 61.6603 12.6579 61.7243 12.6899V15.8931ZM63.0028 24.798V7.75696H66.1992V14.2595C66.6467 13.6829 67.1581 13.2344 67.7974 12.8821C68.4367 12.5618 69.1399 12.3696 69.939 12.3696C70.738 12.3696 71.4732 12.5297 72.1444 12.8501C72.8157 13.1704 73.391 13.6188 73.9025 14.1954C74.4139 14.772 74.7974 15.4447 75.0851 16.1814C75.3728 16.9502 75.5006 17.783 75.5006 18.6799C75.5006 19.5768 75.3408 20.4417 75.0532 21.2104C74.7655 21.9792 74.35 22.6519 73.8385 23.2605C73.3271 23.8371 72.7198 24.3175 72.0166 24.6379C71.3134 24.9582 70.5782 25.1183 69.7472 25.1183C68.9481 25.1183 68.2449 24.9582 67.6056 24.6058C66.9663 24.2855 66.4549 23.805 66.0394 23.1964L65.9435 24.766L63.0028 24.798ZM69.1718 22.2675C69.7472 22.2675 70.2586 22.1073 70.738 21.819C71.1855 21.4987 71.5371 21.0823 71.8248 20.5698C72.0805 20.0573 72.2084 19.4487 72.2084 18.776C72.2084 18.1033 72.0805 17.4947 71.8248 16.9822C71.5371 16.4697 71.1855 16.0533 70.738 15.733C70.2906 15.4126 69.7472 15.2845 69.1718 15.2845C68.5965 15.2845 68.0851 15.4447 67.6056 15.733C67.1581 16.0533 66.8065 16.4697 66.5188 16.9822C66.2631 17.4947 66.1353 18.1033 66.1353 18.776C66.1353 19.4487 66.2631 20.0573 66.5188 20.5698C66.7745 21.0823 67.1581 21.4987 67.6056 21.819C68.0851 22.1073 68.5965 22.2675 69.1718 22.2675ZM76.7153 24.798V12.7219H79.6559L79.7518 14.2915C80.1034 13.7149 80.5829 13.2665 81.1902 12.9141C81.7975 12.5618 82.5007 12.4016 83.2998 12.4016C84.1948 12.4016 84.9619 12.6258 85.6012 13.0423C86.2724 13.4587 86.7839 14.0673 87.1355 14.8361C87.4871 15.6048 87.6788 16.5337 87.6788 17.5908V24.83H84.4825V18.0072C84.4825 17.1744 84.2907 16.5017 83.9071 16.0212C83.5236 15.5408 83.0121 15.2845 82.3409 15.2845C81.8614 15.2845 81.4459 15.3806 81.0623 15.6048C80.7107 15.829 80.4231 16.1173 80.1993 16.5338C79.9756 16.9181 79.8797 17.3986 79.8797 17.8791V24.798H76.7153ZM89.277 24.798V7.75696H92.4734V14.2595C92.9209 13.6829 93.4323 13.2344 94.0716 12.8821C94.7109 12.5618 95.4141 12.3696 96.2132 12.3696C97.0123 12.3696 97.7474 12.5297 98.4187 12.8501C99.0899 13.1704 99.6652 13.6188 100.176 14.1954C100.688 14.772 101.071 15.4447 101.359 16.1814C101.647 16.9502 101.774 17.783 101.774 18.6799C101.774 19.5768 101.615 20.4417 101.327 21.2104C101.039 21.9792 100.624 22.6519 100.112 23.2605C99.6013 23.8371 98.994 24.3175 98.2908 24.6379C97.5876 24.9582 96.8524 25.1183 96.0214 25.1183C95.2223 25.1183 94.5191 24.9582 93.8798 24.6058C93.2405 24.2855 92.7291 23.805 92.3136 23.1964L92.2177 24.766L89.277 24.798ZM95.478 22.2675C96.0533 22.2675 96.5648 22.1073 97.0442 21.819C97.4917 21.4987 97.8433 21.0823 98.131 20.5698C98.3867 20.0573 98.5146 19.4487 98.5146 18.776C98.5146 18.1033 98.3867 17.4947 98.131 16.9822C97.8753 16.4697 97.4917 16.0533 97.0442 15.733C96.5967 15.4126 96.0533 15.2845 95.478 15.2845C94.9026 15.2845 94.3912 15.4447 93.9118 15.733C93.4643 16.0533 93.1127 16.4697 92.825 16.9822C92.5373 17.4947 92.4414 18.1033 92.4414 18.776C92.4414 19.4487 92.5693 20.0573 92.825 20.5698C93.0807 21.0823 93.4643 21.4987 93.9118 21.819C94.3912 22.1073 94.8707 22.2675 95.478 22.2675Z" fill="#FF385C"/>
</svg>
