<svg xmlns="http://www.w3.org/2000/svg" width="45" height="45" style="width:100%;height:100%;transform:translate3d(0,0,0);content-visibility:visible"><defs><clipPath id="a"><path d="M0 0h45v45H0z"/></clipPath></defs><g clip-path="url(#a)"><path fill="none" stroke="#222" stroke-linejoin="round" stroke-width="2" d="M0-4C5.585-4 10.406-.73 12.653 4h-25.306C-10.406-.73-5.585-4 0-4z" style="display:block" transform="translate(15 12.375)"/><path fill="none" stroke="#222" stroke-width="2" d="M0-10.5v21" style="display:block" transform="translate(15 26.875)"/><g style="display:block"><path fill="none" stroke="#222" stroke-width="2" d="M27 37.375v-16M27 30.375h-7a1 1 0 0 0-1 1v6M3 37.375v-16M3 30.375h7a1 1 0 0 1 1 1v6M6 26.375h18"/></g></g></svg>