<svg xmlns="http://www.w3.org/2000/svg" style="width:100%;height:100%;transform:translate3d(0,0,0);content-visibility:visible" viewBox="0 0 45 45"><defs><clipPath id="a"><path d="M0 0h45v45H0z"/></clipPath><clipPath id="h"><path fill="#fff" d="M11.722 2.288h-22.694v3.795h22.694V2.288"/><path fill="#fff" d="M11.722 2.288h-22.694v3.795h22.694V2.288"/></clipPath><clipPath id="g"><path fill="#fff" d="M11.722 2.288h-22.694v3.795h22.694V2.288"/><path fill="#fff" d="M11.722 2.288h-22.694v3.795h22.694V2.288"/></clipPath><clipPath id="f"><path fill="#fff" d="M11.722 2.288h-22.694v3.795h22.694V2.288"/><path fill="#fff" d="M11.722 2.288h-22.694v3.795h22.694V2.288"/></clipPath><clipPath id="e"><path fill="#fff" d="M11.722 2.288h-22.694v3.795h22.694V2.288"/><path fill="#fff" d="M11.722 2.288h-22.694v3.795h22.694V2.288"/></clipPath><clipPath id="d"><path fill="#fff" d="M11.722 2.288h-22.694v3.795h22.694V2.288"/><path fill="#fff" d="M11.722 2.288h-22.694v3.795h22.694V2.288"/></clipPath><clipPath id="c"><path fill="#fff" d="M11.722 2.288h-22.694v3.795h22.694V2.288"/><path fill="#fff" d="M11.722 2.288h-22.694v3.795h22.694V2.288"/></clipPath><clipPath id="b"><path fill="#fff" d="M11.722 2.288h-22.694v3.795h22.694V2.288"/><path fill="#fff" d="M11.722 2.288h-22.694v3.795h22.694V2.288"/></clipPath></defs><g clip-path="url(#a)"><g style="display:block"><path fill="none" stroke="#222" stroke-width="2" d="M25 29.626h4v3a1 1 0 0 1-1 1h-2a1 1 0 0 1-1-1v-3zM3 29.626h4v3a1 1 0 0 1-1 1H4a1 1 0 0 1-1-1v-3z"/></g><g style="display:block"><path fill="none" stroke="#222" stroke-width="2" d="M7 18.891h18a4 4 0 0 1 4 4v5a1 1 0 0 1-1 1H4a1 1 0 0 1-1-1v-5a4 4 0 0 1 4-4z"/><path fill="#222" d="M25 22.891a1 1 0 1 1 0 2 1 1 0 0 1 0-2zM7 22.891a1 1 0 1 1 0 2 1 1 0 0 1 0-2z"/><path fill="none" stroke="#222" stroke-width="2" d="M8.693 10.891h14.614a1 1 0 0 1 .936.65L27 18.89H5l2.757-7.35a1 1 0 0 1 .936-.65z"/><path fill="#222" d="M2 15.891h3v2H2v-2zM27 15.891h3v2h-3v-2z"/><path fill="none" stroke="#222" stroke-width="2" d="M10 23.891h12"/></g></g></svg>