<svg width="24" height="25" viewBox="0 0 24 25" fill="none" xmlns="http://www.w3.org/2000/svg">
<path d="M18 20.3C18.741 20.3 19.4587 20.5632 20.0033 21.0567C20.2327 21.2637 20.5357 21.3905 20.8597 21.419L21 21.425V22.925L20.829 22.9205C20.1502 22.8868 19.5034 22.6213 18.9967 22.1682C18.7214 21.9266 18.3663 21.7955 18 21.8C17.6235 21.8 17.2665 21.9312 17.004 22.1682C16.4531 22.6596 15.7396 22.9292 15.0015 22.925C14.2628 22.9296 13.5488 22.6599 12.9975 22.1682C12.7219 21.9265 12.3666 21.7953 12 21.8C11.6228 21.8 11.265 21.9312 11.0033 22.1682C10.4523 22.6595 9.73888 22.9291 9.00075 22.925C8.2622 22.9297 7.54815 22.6603 6.99675 22.169C6.72148 21.9271 6.36642 21.7957 6 21.8C5.62275 21.8 5.265 21.9312 5.0025 22.1682C4.49601 22.6211 3.84957 22.8866 3.171 22.9205L3 22.925V21.425L3.14025 21.419C3.45752 21.3945 3.75818 21.2673 3.99675 21.0567C4.54773 20.5651 5.26157 20.2954 6 20.3C6.741 20.3 7.45875 20.564 8.00325 21.0567C8.26575 21.2937 8.62275 21.4242 9.00075 21.425C9.37725 21.425 9.735 21.2937 9.99675 21.056C10.5478 20.5646 11.2617 20.2952 12 20.3C12.741 20.3 13.4587 20.5632 14.0033 21.0567C14.2657 21.2937 14.6227 21.4242 15.0007 21.425C15.3772 21.425 15.735 21.2937 15.9967 21.0567C16.5475 20.5653 17.2611 20.2956 17.9993 20.3H18ZM18 16.55C18.741 16.55 19.4587 16.8132 20.0033 17.3067C20.2327 17.5137 20.5357 17.6405 20.8597 17.669L21 17.675V19.175L20.829 19.1705C20.1502 19.1368 19.5034 18.8713 18.9967 18.4182C18.7214 18.1766 18.3663 18.0455 18 18.05C17.6235 18.05 17.2665 18.1812 17.004 18.4182C16.4531 18.9096 15.7396 19.1792 15.0015 19.175C14.2628 19.1796 13.5488 18.9099 12.9975 18.4182C12.7219 18.1765 12.3666 18.0453 12 18.05C11.6228 18.05 11.265 18.1812 11.0033 18.4182C10.4523 18.9095 9.73888 19.1791 9.00075 19.175C8.2622 19.1797 7.54815 18.9103 6.99675 18.419C6.72148 18.1771 6.36642 18.0457 6 18.05C5.62275 18.05 5.265 18.1812 5.0025 18.4182C4.49601 18.8711 3.84957 19.1366 3.171 19.1705L3 19.175V17.675L3.14025 17.669C3.45752 17.6445 3.75818 17.5173 3.99675 17.3067C4.54773 16.8151 5.26157 16.5454 6 16.55C6.741 16.55 7.45875 16.814 8.00325 17.3067C8.26575 17.5437 8.62275 17.6742 9.00075 17.675C9.37725 17.675 9.735 17.5437 9.99675 17.306C10.5478 16.8146 11.2617 16.5452 12 16.55C12.741 16.55 13.4587 16.8132 14.0033 17.3067C14.2657 17.5437 14.6227 17.6742 15.0007 17.675C15.3772 17.675 15.735 17.5437 15.9967 17.3067C16.5475 16.8153 17.2611 16.5456 17.9993 16.55H18ZM15 3.04999C15.7697 3.04999 16.5099 3.34582 17.0676 3.87628C17.6253 4.40675 17.9578 5.13127 17.9963 5.89999L18 6.04999V7.54999H21V9.04999H18V12.8C18.684 12.8 19.3485 13.025 19.875 13.4465L20.0033 13.5567C20.2327 13.7637 20.5357 13.8905 20.8597 13.919L21 13.925V15.425L20.829 15.4205C20.1502 15.3868 19.5034 15.1213 18.9967 14.6682C18.7214 14.4266 18.3663 14.2955 18 14.3C17.6235 14.3 17.2665 14.4312 17.004 14.6682C16.4531 15.1596 15.7396 15.4292 15.0015 15.425C14.2628 15.4296 13.5488 15.1599 12.9975 14.6682C12.7219 14.4265 12.3666 14.2953 12 14.3C11.6228 14.3 11.265 14.4312 11.0033 14.6682C10.4523 15.1595 9.73888 15.4291 9.00075 15.425C8.2622 15.4297 7.54815 15.1603 6.99675 14.669C6.72148 14.4271 6.36642 14.2957 6 14.3C5.62275 14.3 5.265 14.4312 5.0025 14.6682C4.49601 15.1211 3.84957 15.3866 3.171 15.4205L3 15.425V13.925L3.14025 13.919C3.45752 13.8945 3.75818 13.7673 3.99675 13.5567C4.54773 13.0651 5.26157 12.7954 6 12.8C6.741 12.8 7.45875 13.064 8.00325 13.5567C8.26575 13.7937 8.62275 13.9242 9.00075 13.925C9.37725 13.925 9.735 13.7937 9.99675 13.556C10.5036 13.1029 11.1507 12.8376 11.8298 12.8045L12 12.8V9.04999H3V7.54999H12V6.04999C12.0017 5.66075 11.8521 5.28608 11.5827 5.00513C11.3133 4.72417 10.9453 4.55894 10.5563 4.54433C10.1673 4.52973 9.78792 4.6669 9.49821 4.92686C9.20851 5.18682 9.0312 5.54922 9.00375 5.93749L9 6.04999H7.5C7.50011 5.44068 7.68576 4.84584 8.03225 4.34463C8.37873 3.84341 8.86962 3.45958 9.4396 3.24421C10.0096 3.02884 10.6316 2.99213 11.223 3.13898C11.8144 3.28582 12.347 3.60925 12.75 4.06624C13.031 3.74635 13.3771 3.4902 13.7652 3.31493C14.1532 3.13967 14.5742 3.04934 15 3.04999ZM13.5 13.1922C13.62 13.2605 13.7347 13.3377 13.8442 13.4225L14.0033 13.5567C14.2657 13.7937 14.6227 13.9242 15.0007 13.925C15.33 13.925 15.6458 13.8245 15.894 13.64L15.9967 13.5567C16.1512 13.4165 16.32 13.2942 16.4993 13.1922V9.04999H13.4993L13.5 13.1922ZM15 4.54999C14.6216 4.54987 14.2571 4.6928 13.9796 4.95011C13.7021 5.20743 13.5321 5.56012 13.5037 5.93749L13.5 6.04999V7.54999H16.5V6.04999C16.5 5.65217 16.342 5.27064 16.0607 4.98933C15.7794 4.70803 15.3978 4.54999 15 4.54999Z" fill="#222222"/>
</svg>
