<svg width="20" height="21" viewBox="0 0 20 21" fill="none" xmlns="http://www.w3.org/2000/svg">
<g clip-path="url(#clip0_24_10226)">
<path d="M10.625 1.42499V3.94374L13.1413 2.49124L13.7663 3.57374L10.625 5.38686V9.71686L14.375 7.55186V3.92499H15.625V6.82999L17.8063 5.57124L18.4313 6.65374L16.25 7.91311L18.7663 9.36624L18.1413 10.4487L15 8.63436L11.25 10.7994L15 12.965L18.1413 11.1512L18.7663 12.2337L16.25 13.6862L18.4313 14.9462L17.8063 16.0287L15.625 14.7694V17.675H14.375V14.0475L10.625 11.8819V16.2125L13.7663 18.0262L13.1413 19.1087L10.625 17.6562V20.175H9.37501V17.6556L6.85876 19.1087L6.23376 18.0262L9.37501 16.2125V11.8819L5.62501 14.0469V17.675H4.37501V14.7687L2.19376 16.0287L1.56876 14.9462L3.74939 13.6862L1.23376 12.2337L1.85876 11.1512L4.99939 12.9644L8.74939 10.7994L4.99939 8.63436L1.85876 10.4487L1.23376 9.36624L3.75001 7.91249L1.56876 6.65374L2.19376 5.57124L4.37501 6.82999V3.92499H5.62501V7.55186L9.37501 9.71686V5.38686L6.23376 3.57374L6.85876 2.49124L9.37501 3.94374V1.42499H10.625Z" fill="#222222"/>
</g>
<defs>
<clipPath id="clip0_24_10226">
<rect width="20" height="20" fill="white" transform="translate(0 0.799988)"/>
</clipPath>
</defs>
</svg>
