<svg xmlns="http://www.w3.org/2000/svg" width="45" height="45" style="width:100%;height:100%;transform:translate3d(0,0,0);content-visibility:visible"><defs><clipPath id="a"><path d="M0 0h45v45H0z"/></clipPath></defs><g clip-path="url(#a)"><path fill="#222" d="M-2.25 6.75h4.5v1.5h-4.5v-1.5zm-3 1.5v1.5h10.5v-1.5h-1.5v-1.5l.812-.003.163-.004c1.996-.085 1.887-.906-.13-.906l-9.412.007c-1.996.085-1.888.906.129.906h.938v1.5h-1.5z" style="display:block" transform="matrix(1.318 0 0 1.318 16.875 22.625)"/><path fill="#222" d="M-7.5-8.25h15l.132.004A2.25 2.25 0 0 1 9.75-6v9l-.004.132A2.25 2.25 0 0 1 7.5 5.25h-15l-.132-.004A2.25 2.25 0 0 1-9.75 3v-9l.004-.132A2.25 2.25 0 0 1-7.5-8.25zm11.25 15H7.5l.163-.003A3.75 3.75 0 0 0 11.25 3v-9l-.003-.163A3.75 3.75 0 0 0 7.5-9.75h-15l-.163.003A3.75 3.75 0 0 0-11.25-6v9l.003.163A3.75 3.75 0 0 0-7.5 6.75H3.75z" style="display:block" transform="matrix(1.318 0 0 1.318 16.875 22.625)"/></g></svg>