<svg width="20" height="21" viewBox="0 0 20 21" fill="none" xmlns="http://www.w3.org/2000/svg">
<path d="M5.625 18.925V17.675H6.875V16.425H3.75C2.94471 16.4249 2.17052 16.114 1.58889 15.5571C1.00725 15.0001 0.663075 14.2401 0.628125 13.4356L0.625 13.3V5.79999C0.625047 4.9947 0.935963 4.22051 1.49291 3.63888C2.04986 3.05724 2.80984 2.71306 3.61438 2.67811L3.75 2.67499H16.25C17.0553 2.67503 17.8295 2.98595 18.4111 3.5429C18.9927 4.09985 19.3369 4.85983 19.3719 5.66436L19.375 5.79999V13.3C19.375 14.1053 19.064 14.8795 18.5071 15.4611C17.9501 16.0427 17.1902 16.3869 16.3856 16.4219L16.25 16.425H13.125V17.675H14.375V18.925H5.625ZM11.875 16.425H8.125V17.675H11.875V16.425ZM16.25 3.92499H3.75C3.27174 3.92496 2.81155 4.10769 2.46359 4.43579C2.11562 4.76389 1.90618 5.21255 1.87813 5.68999L1.875 5.79999V13.3C1.87497 13.7782 2.0577 14.2384 2.3858 14.5864C2.7139 14.9344 3.16257 15.1438 3.64 15.1719L3.75 15.175H16.25C16.7283 15.175 17.1884 14.9923 17.5364 14.6642C17.8844 14.3361 18.0938 13.8874 18.1219 13.41L18.125 13.3V5.79999C18.125 5.32173 17.9423 4.86154 17.6142 4.51357C17.2861 4.16561 16.8374 3.95617 16.36 3.92811L16.25 3.92499Z" fill="#222222"/>
</svg>
