<svg xmlns="http://www.w3.org/2000/svg" style="width:100%;height:100%;transform:translate3d(0,0,0);content-visibility:visible" viewBox="0 0 45 45"><defs><clipPath id="a"><path d="M0 0h45v45H0z"/></clipPath><clipPath id="b"><path fill="#fff" d="M.127-9.54A8.664 8.664 0 0 0-8.538-.875a8.665 8.665 0 1 0 17.33 0A8.664 8.664 0 0 0 .127-9.54"/></clipPath></defs><g clip-path="url(#a)"><g clip-path="url(#b)" style="display:block" transform="translate(16 23.875)"><path fill="none" stroke="#222" stroke-width="2" d="M33 36V19c0-3.095.412-6.958.618-10.366.206-3.408.205-6.36-.618-7.634-.066-.101-.739-.101-1.435-.076C30.87.949 30.152 1 30 1c-4.11 0-4.799-1.704-7-3-2.331-1.373-3.15-2.046-6-2-5.881.095-8.235 5.101-13 5C-.843.898-4.674-5.143-9-5c-3.922.13-7.625 5.977-12 6-5.182.028-7.762-6.019-12-4 1.727 13.384-2.503 25.713 0 32 .52 1.306 3.209 2.806 5 4 2.526 1.685 4.387 3.008 7 3 4.611-.014 7.557-6.058 13-6 3.878.041 8.521 6.108 13 6 5.362-.13 7.153-6.185 13-6 5.665.18 7.721 7.992 15 6z"/></g><g style="display:block"><path fill="none" stroke="#222" stroke-width="2" d="M4 9.875h24a1 1 0 0 1 1 1v24a1 1 0 0 1-1 1H4a1 1 0 0 1-1-1v-24a1 1 0 0 1 1-1z"/><path fill="none" stroke="#222" stroke-width="2" d="M16 14.875a8 8 0 1 1 0 16 8 8 0 0 1 0-16z"/><path d="M7 12.875a1 1 0 1 1 0 2 1 1 0 0 1 0-2z"/></g></g></svg>