<svg width="20" height="21" viewBox="0 0 20 21" fill="none" xmlns="http://www.w3.org/2000/svg">
<path d="M9.99992 13.5083C11.2656 13.5083 12.2916 14.5343 12.2916 15.7999C12.2916 17.0656 11.2656 18.0916 9.99992 18.0916C8.73426 18.0916 7.70825 17.0656 7.70825 15.7999C7.70825 14.5343 8.73426 13.5083 9.99992 13.5083ZM9.99992 14.7583C9.42462 14.7583 8.95825 15.2246 8.95825 15.7999C8.95825 16.3752 9.42462 16.8416 9.99992 16.8416C10.5752 16.8416 11.0416 16.3752 11.0416 15.7999C11.0416 15.2246 10.5752 14.7583 9.99992 14.7583ZM9.99998 10.175C12.198 10.175 14.1015 11.4357 15.027 13.2734L14.0805 14.2189C13.4467 12.5841 11.8587 11.425 9.99998 11.425C8.14127 11.425 6.55329 12.5841 5.91941 14.2189L4.97327 13.2728C5.89884 11.4354 7.80222 10.175 9.99998 10.175ZM10 6.84174C13.1128 6.84174 15.8548 8.42937 17.4604 10.8391L16.556 11.7437C15.1968 9.55163 12.7689 8.09174 10 8.09174C7.23117 8.09174 4.80328 9.55163 3.44411 11.7437L2.53967 10.8391C4.14527 8.42937 6.88725 6.84174 10 6.84174ZM9.99992 3.50824C14.0318 3.50824 17.6103 5.44951 19.8517 8.44837L18.9577 9.34274C16.9523 6.5656 13.6872 4.75824 9.99992 4.75824C6.31295 4.75824 3.04805 6.56533 1.04261 9.34211L0.14856 8.44774C2.39 5.44924 5.96828 3.50824 9.99992 3.50824Z" fill="#222222"/>
</svg>
