<svg width="32" height="32" viewBox="0 0 32 32" fill="none" xmlns="http://www.w3.org/2000/svg">
<path d="M16 0.700012C7.56295 0.700012 0.699951 7.56301 0.699951 16C0.699951 24.437 7.56295 31.3 16 31.3C24.437 31.3 31.2999 24.437 31.2999 16C31.2999 7.56301 24.437 0.700012 16 0.700012V0.700012ZM16 28.7C11.979 28.7 8.39495 26.816 6.06695 23.89C7.68856 21.7682 9.95064 20.2253 12.518 19.49C11.5936 18.9028 10.8323 18.0918 10.3048 17.1321C9.77719 16.1724 9.50038 15.0951 9.49995 14C9.49995 10.416 12.416 7.50001 16 7.50001C19.584 7.50001 22.5 10.416 22.5 14C22.499 15.0953 22.2219 16.1727 21.6942 17.1324C21.1665 18.0922 20.4053 18.9034 19.481 19.491C22.0488 20.2258 24.3113 21.7688 25.933 23.891C23.605 26.816 20.021 28.7 16 28.7Z" fill="#717171"/>
</svg>
