<svg width="115" height="77" viewBox="0 0 115 77" fill="none" xmlns="http://www.w3.org/2000/svg">
<g filter="url(#filter0_d_5_49)">
<rect x="20" y="10" width="75" height="37" rx="18.5" fill="white" shape-rendering="crispEdges"/>
<path d="M33 28.5C34.306 28.5 35.418 29.335 35.83 30.5H42V32.5H35.829C35.6458 33.0189 35.3235 33.4774 34.8973 33.8255C34.4711 34.1735 33.9573 34.3977 33.4123 34.4734C32.8673 34.5492 32.3119 34.4736 31.8069 34.255C31.3019 34.0364 30.8668 33.6831 30.549 33.2339C30.2313 32.7846 30.0432 32.2566 30.0053 31.7076C29.9674 31.1587 30.0812 30.6099 30.3342 30.1212C30.5872 29.6325 30.9697 29.2228 31.4399 28.9369C31.91 28.651 32.4497 28.4998 33 28.5V28.5ZM33 30.5C32.7348 30.5 32.4804 30.6054 32.2929 30.7929C32.1054 30.9804 32 31.2348 32 31.5C32 31.7652 32.1054 32.0196 32.2929 32.2071C32.4804 32.3946 32.7348 32.5 33 32.5C33.2652 32.5 33.5196 32.3946 33.7071 32.2071C33.8947 32.0196 34 31.7652 34 31.5C34 31.2348 33.8947 30.9804 33.7071 30.7929C33.5196 30.6054 33.2652 30.5 33 30.5ZM39 22.5C39.55 22.5001 40.0893 22.6514 40.5591 22.9373C41.0289 23.2233 41.4111 23.6328 41.6639 24.1213C41.9166 24.6097 42.0302 25.1583 41.9923 25.7069C41.9544 26.2556 41.7663 26.7833 41.4488 27.2323C41.1312 27.6813 40.6963 28.0344 40.1916 28.2529C39.6869 28.4715 39.1319 28.5471 38.5871 28.4715C38.0424 28.3959 37.5289 28.1721 37.1028 27.8244C36.6767 27.4767 36.3543 27.0185 36.171 26.5H30V24.5H36.17C36.377 23.9149 36.7603 23.4084 37.2672 23.0502C37.774 22.6921 38.3794 22.4998 39 22.5V22.5ZM39 24.5C38.7348 24.5 38.4804 24.6054 38.2929 24.7929C38.1054 24.9804 38 25.2348 38 25.5C38 25.7652 38.1054 26.0196 38.2929 26.2071C38.4804 26.3946 38.7348 26.5 39 26.5C39.2652 26.5 39.5196 26.3946 39.7071 26.2071C39.8947 26.0196 40 25.7652 40 25.5C40 25.2348 39.8947 24.9804 39.7071 24.7929C39.5196 24.6054 39.2652 24.5 39 24.5V24.5Z" fill="#FF385C"/>
<path d="M54.172 28.72H58.216V27.784H54.172V25.024H58.54V24.1H53.14V32.5H54.172V28.72ZM59.7212 25.06H60.8372V23.86H59.7212V25.06ZM59.7812 32.5H60.7772V26.428H59.7812V32.5ZM63.7894 23.968H62.7934V32.5H63.7894V23.968ZM68.7806 31.612H68.0126C67.3766 31.612 67.2086 31.336 67.2086 30.76V27.316H68.6366V26.428H67.2086V24.532L66.2126 24.808V26.428H65.0486V27.316H66.2126V30.88C66.2126 31.516 66.3566 31.948 66.6566 32.176C66.9566 32.392 67.3766 32.5 67.9046 32.5H68.7806V31.612ZM75.3457 29.716V29.248C75.3457 27.304 74.1697 26.32 72.6937 26.32C71.1817 26.32 69.8617 27.352 69.8617 29.464C69.8617 31.576 71.1697 32.632 72.6817 32.632C73.2937 32.632 73.8457 32.476 74.3377 32.152C74.8297 31.828 75.1417 31.348 75.2977 30.736H74.3137C74.1097 31.372 73.4977 31.744 72.7297 31.744C71.6377 31.744 70.8697 31.024 70.8337 29.716H75.3457ZM70.8577 28.912C70.9897 27.748 71.7097 27.184 72.6697 27.184C73.6657 27.184 74.3497 27.868 74.3497 28.912H70.8577ZM80.0934 26.368H79.8054C78.8934 26.368 78.2454 26.752 77.9454 27.484V26.428H76.9614V32.5H77.9574V29.344C77.9574 28 78.6174 27.316 79.8174 27.316H80.0934V26.368ZM86.0225 30.724C86.0225 29.872 85.4705 29.44 84.8945 29.284C84.6065 29.2 84.2105 29.128 83.7065 29.056C82.6385 28.9 82.1225 28.72 82.1225 28.096C82.1225 27.508 82.6745 27.208 83.4065 27.208C84.2105 27.208 84.8225 27.568 84.8345 28.24H85.8545C85.8425 27.604 85.6025 27.136 85.1345 26.812C84.6665 26.488 84.0905 26.32 83.4065 26.32C82.0625 26.32 81.0905 26.98 81.0905 28.144C81.0905 28.624 81.2225 28.996 81.4985 29.248C81.7745 29.5 82.0865 29.668 82.4105 29.752C82.7345 29.836 83.2025 29.92 83.8025 30.016C84.5585 30.124 84.9665 30.316 84.9665 30.856C84.9665 31.432 84.4265 31.744 83.6465 31.744C82.7465 31.744 82.0745 31.372 81.9665 30.604H80.9345C80.9945 31.264 81.2705 31.768 81.7625 32.116C82.2665 32.464 82.8665 32.632 83.5745 32.632C84.2585 32.632 84.8465 32.464 85.3145 32.14C85.7825 31.816 86.0225 31.336 86.0225 30.724Z" fill="#222222"/>
<rect x="20.5" y="10.5" width="74" height="36" rx="18" stroke="#DDDDDD" shape-rendering="crispEdges"/>
</g>
<defs>
<filter id="filter0_d_5_49" x="0" y="0" width="115" height="77" filterUnits="userSpaceOnUse" color-interpolation-filters="sRGB">
<feFlood flood-opacity="0" result="BackgroundImageFix"/>
<feColorMatrix in="SourceAlpha" type="matrix" values="0 0 0 0 0 0 0 0 0 0 0 0 0 0 0 0 0 0 127 0" result="hardAlpha"/>
<feOffset dy="10"/>
<feGaussianBlur stdDeviation="10"/>
<feComposite in2="hardAlpha" operator="out"/>
<feColorMatrix type="matrix" values="0 0 0 0 0 0 0 0 0 0 0 0 0 0 0 0 0 0 0.1 0"/>
<feBlend mode="normal" in2="BackgroundImageFix" result="effect1_dropShadow_5_49"/>
<feBlend mode="normal" in="SourceGraphic" in2="effect1_dropShadow_5_49" result="shape"/>
</filter>
</defs>
</svg>
