<svg width="12" height="13" viewBox="0 0 12 13" fill="none" xmlns="http://www.w3.org/2000/svg">
<g clip-path="url(#clip0_24_11249)">
<path fill-rule="evenodd" clip-rule="evenodd" d="M5.66025 1.51786L4.11375 4.84973L0.41625 5.32598C0.344982 5.33505 0.277819 5.36439 0.222749 5.41053C0.167679 5.45667 0.127021 5.51765 0.10561 5.58623C0.0841998 5.6548 0.0829385 5.72809 0.101976 5.79736C0.121014 5.86663 0.15955 5.92898 0.213 5.97698L2.94787 8.43886L2.211 12.1334C2.19682 12.2042 2.20338 12.2776 2.2299 12.3447C2.25642 12.4119 2.30177 12.47 2.3605 12.512C2.41923 12.554 2.48884 12.5782 2.56097 12.5816C2.63311 12.585 2.70469 12.5675 2.76712 12.5312L6 10.6574L9.23438 12.5312C9.29677 12.5674 9.36826 12.5847 9.44029 12.5813C9.51231 12.5778 9.58181 12.5537 9.64045 12.5117C9.6991 12.4698 9.74441 12.4118 9.77096 12.3448C9.7975 12.2777 9.80416 12.2045 9.79012 12.1337L9.05325 8.43886L11.7881 5.97698C11.8414 5.92898 11.8799 5.86669 11.8989 5.7975C11.9179 5.72832 11.9166 5.65513 11.8952 5.58664C11.8739 5.51815 11.8333 5.45722 11.7784 5.41108C11.7234 5.36495 11.6564 5.33554 11.5852 5.32636L7.88775 4.84973L6.34012 1.51786C6.31002 1.45302 6.26201 1.39813 6.20175 1.35967C6.14149 1.32122 6.07149 1.30078 6 1.30078C5.92851 1.30078 5.85851 1.32122 5.79825 1.35967C5.73799 1.39813 5.68998 1.45302 5.65987 1.51786H5.66025Z" fill="#717171"/>
</g>
<defs>
<clipPath id="clip0_24_11249">
<rect width="12" height="12" fill="white" transform="translate(0 0.925781)"/>
</clipPath>
</defs>
</svg>
