<svg width="102" height="32" viewBox="0 0 102 32" fill="none" xmlns="http://www.w3.org/2000/svg">
<path d="M29.3864 22.7101C29.2429 22.3073 29.0752 21.9176 28.9157 21.5565C28.6701 21.0011 28.4129 20.4446 28.1641 19.9067L28.1444 19.864C25.9255 15.0589 23.5439 10.1881 21.0659 5.38701L20.9607 5.18316C20.7079 4.69289 20.4466 4.18596 20.1784 3.68786C19.8604 3.0575 19.4745 2.4636 19.0276 1.91668C18.5245 1.31651 17.8956 0.833822 17.1853 0.502654C16.475 0.171486 15.7005 -9.83959e-05 14.9165 4.23316e-08C14.1325 9.84805e-05 13.3581 0.171877 12.6478 0.503224C11.9376 0.834571 11.3088 1.31742 10.8059 1.91771C10.3595 2.46476 9.97383 3.05853 9.65572 3.68858C9.38521 4.19115 9.12145 4.70278 8.8664 5.19757L8.76872 5.38696C6.29061 10.1884 3.90903 15.0592 1.69015 19.8639L1.65782 19.9338C1.41334 20.463 1.16057 21.0102 0.919073 21.5563C0.75949 21.9171 0.592009 22.3065 0.448355 22.7103C0.0369063 23.8104 -0.094204 24.9953 0.0668098 26.1585C0.237562 27.334 0.713008 28.4447 1.44606 29.3804C2.17911 30.3161 3.14434 31.0444 4.24614 31.4932C5.07835 31.8299 5.96818 32.002 6.86616 32C7.14824 31.9999 7.43008 31.9835 7.71027 31.9509C8.846 31.8062 9.94136 31.4366 10.9321 30.8639C12.2317 30.1338 13.5152 29.0638 14.9173 27.5348C16.3194 29.0638 17.6029 30.1338 18.9025 30.8639C19.8932 31.4367 20.9886 31.8062 22.1243 31.9509C22.4045 31.9835 22.6864 31.9999 22.9685 32C23.8664 32.002 24.7561 31.8299 25.5883 31.4932C26.6901 31.0444 27.6554 30.3161 28.3885 29.3804C29.1216 28.4447 29.5971 27.3341 29.7679 26.1585C29.9287 24.9952 29.7976 23.8103 29.3864 22.7101ZM14.9173 24.377C13.1816 22.1769 12.0678 20.1338 11.677 18.421C11.5169 17.7792 11.4791 17.1131 11.5656 16.4573C11.6339 15.9766 11.8105 15.5176 12.0821 15.1148C12.4163 14.6814 12.8458 14.3304 13.3374 14.0889C13.829 13.8475 14.3696 13.7219 14.9175 13.7219C15.4655 13.722 16.006 13.8476 16.4976 14.0892C16.9892 14.3307 17.4186 14.6817 17.7528 15.1151C18.0244 15.5181 18.201 15.9771 18.2693 16.4579C18.3556 17.114 18.3177 17.7803 18.1573 18.4223C17.7661 20.1349 16.6526 22.1774 14.9173 24.377ZM27.7406 25.8689C27.6212 26.6908 27.2887 27.4674 26.7762 28.1216C26.2636 28.7759 25.5887 29.2852 24.8183 29.599C24.0393 29.9111 23.1939 30.0217 22.3607 29.9205C21.4946 29.8089 20.6599 29.5239 19.9069 29.0824C18.7501 28.4325 17.5791 27.4348 16.2614 25.9712C18.3591 23.3846 19.669 21.0005 20.154 18.877C20.3723 17.984 20.4196 17.0579 20.2935 16.1475C20.1791 15.3632 19.8879 14.615 19.4419 13.9593C18.9194 13.2519 18.2378 12.6768 17.452 12.2805C16.6661 11.8842 15.798 11.6777 14.9175 11.6777C14.0371 11.6777 13.1689 11.8841 12.383 12.2803C11.5971 12.6765 10.9155 13.2515 10.393 13.9589C9.94707 14.6144 9.65591 15.3624 9.5414 16.1465C9.41524 17.0566 9.4623 17.9822 9.68011 18.8749C10.1648 20.9993 11.4748 23.384 13.5732 25.9714C12.2555 27.4348 11.0845 28.4325 9.92769 29.0825C9.17468 29.5239 8.34007 29.809 7.47395 29.9205C6.64065 30.0217 5.79525 29.9111 5.0162 29.599C4.24581 29.2852 3.57092 28.7759 3.05838 28.1217C2.54585 27.4674 2.21345 26.6908 2.09411 25.8689C1.97932 25.0334 2.07701 24.1825 2.37818 23.3946C2.49266 23.0728 2.62663 22.757 2.7926 22.3818C3.0274 21.851 3.27657 21.3115 3.51759 20.7898L3.54996 20.7197C5.75643 15.9419 8.12481 11.0982 10.5894 6.32294L10.6875 6.13283C10.9384 5.64601 11.1979 5.14267 11.4597 4.6563C11.7101 4.15501 12.0132 3.68171 12.3639 3.2444C12.6746 2.86903 13.0646 2.56681 13.5059 2.35934C13.9473 2.15186 14.4291 2.04426 14.9169 2.04422C15.4047 2.04418 15.8866 2.15171 16.3279 2.35911C16.7693 2.56651 17.1593 2.86867 17.4701 3.24399C17.821 3.68097 18.1242 4.15411 18.3744 4.65538C18.6338 5.13742 18.891 5.63623 19.1398 6.11858L19.2452 6.32315C21.7097 11.0979 24.078 15.9415 26.2847 20.7201L26.3046 20.7631C26.5498 21.2936 26.8033 21.8419 27.042 22.382C27.2082 22.7577 27.3424 23.0738 27.4566 23.3944C27.7576 24.1824 27.8553 25.0333 27.7406 25.8689Z" fill="#FF385C"/>
<path d="M41.3963 24.7287C40.5972 24.7287 39.8621 24.5685 39.1908 24.2482C38.5196 23.9279 37.9443 23.4794 37.4328 22.9028C36.9214 22.3263 36.5379 21.6536 36.2502 20.9169C35.9625 20.1481 35.8346 19.3153 35.8346 18.4184C35.8346 17.5215 35.9945 16.6566 36.2821 15.8878C36.5698 15.1191 36.9853 14.4464 37.4968 13.8378C38.0082 13.2612 38.6155 12.7807 39.3187 12.4604C40.0219 12.1401 40.7571 11.9799 41.5881 11.9799C42.3872 11.9799 43.0904 12.1401 43.7297 12.4924C44.369 12.8128 44.8804 13.2932 45.2959 13.9018L45.3918 12.3323H48.3325V24.4083H45.3918L45.2959 22.6466C44.8804 23.2872 44.337 23.7997 43.6338 24.1841C42.9945 24.5365 42.2274 24.7287 41.3963 24.7287ZM42.1635 21.8458C42.7388 21.8458 43.2502 21.6856 43.7297 21.3973C44.1772 21.077 44.5288 20.6606 44.8165 20.1481C45.0722 19.6356 45.2 19.027 45.2 18.3543C45.2 17.6816 45.0722 17.073 44.8165 16.5605C44.5608 16.048 44.1772 15.6316 43.7297 15.3113C43.2822 14.9909 42.7388 14.8628 42.1635 14.8628C41.5881 14.8628 41.0767 15.023 40.5972 15.3113C40.1498 15.6316 39.7982 16.048 39.5105 16.5605C39.2548 17.073 39.1269 17.6816 39.1269 18.3543C39.1269 19.027 39.2548 19.6356 39.5105 20.1481C39.7662 20.6606 40.1498 21.077 40.5972 21.3973C41.0767 21.6856 41.5881 21.8458 42.1635 21.8458ZM53.3508 9.06503C53.3508 9.41738 53.2869 9.73771 53.127 9.99396C52.9672 10.2502 52.7435 10.4744 52.4558 10.6346C52.1681 10.7947 51.8485 10.8588 51.5289 10.8588C51.2092 10.8588 50.8896 10.7947 50.6019 10.6346C50.3142 10.4744 50.0905 10.2502 49.9307 9.99396C49.7708 9.70567 49.7069 9.41738 49.7069 9.06503C49.7069 8.71268 49.7708 8.39236 49.9307 8.1361C50.0905 7.84781 50.3142 7.65562 50.6019 7.49546C50.8896 7.3353 51.2092 7.27124 51.5289 7.27124C51.8485 7.27124 52.1681 7.3353 52.4558 7.49546C52.7435 7.65562 52.9672 7.87985 53.127 8.1361C53.2549 8.39236 53.3508 8.68065 53.3508 9.06503ZM49.9307 24.3763V12.3002H53.127V24.3763H49.9307ZM61.6614 15.4714V15.5034C61.5016 15.4394 61.3098 15.4073 61.1499 15.3753C60.9582 15.3433 60.7983 15.3433 60.6066 15.3433C59.7116 15.3433 59.0403 15.5995 58.5928 16.1441C58.1134 16.6886 57.8896 17.4574 57.8896 18.4504V24.3763H54.6933V12.3002H57.6339L57.7298 14.1261C58.0495 13.4854 58.433 13.0049 58.9764 12.6526C59.4878 12.3002 60.0951 12.1401 60.7983 12.1401C61.0221 12.1401 61.2458 12.1721 61.4376 12.2041C61.5335 12.2362 61.5974 12.2362 61.6614 12.2682V15.4714ZM62.9399 24.3763V7.3353H66.1363V13.8378C66.5838 13.2612 67.0952 12.8127 67.7345 12.4604C68.3738 12.1401 69.077 11.9479 69.8761 11.9479C70.6751 11.9479 71.4103 12.108 72.0815 12.4284C72.7528 12.7487 73.3281 13.1971 73.8396 13.7737C74.351 14.3503 74.7345 15.023 75.0222 15.7597C75.3099 16.5285 75.4377 17.3613 75.4377 18.2582C75.4377 19.1551 75.2779 20.02 74.9903 20.7887C74.7026 21.5575 74.2871 22.2302 73.7756 22.8388C73.2642 23.4154 72.6569 23.8958 71.9537 24.2162C71.2505 24.5365 70.5153 24.6966 69.6843 24.6966C68.8852 24.6966 68.182 24.5365 67.5427 24.1841C66.9034 23.8638 66.392 23.3833 65.9765 22.7747L65.8806 24.3443L62.9399 24.3763ZM69.1089 21.8458C69.6843 21.8458 70.1957 21.6856 70.6751 21.3973C71.1226 21.077 71.4742 20.6606 71.7619 20.1481C72.0176 19.6356 72.1455 19.027 72.1455 18.3543C72.1455 17.6816 72.0176 17.073 71.7619 16.5605C71.4742 16.048 71.1226 15.6316 70.6751 15.3113C70.2277 14.9909 69.6843 14.8628 69.1089 14.8628C68.5336 14.8628 68.0222 15.023 67.5427 15.3113C67.0952 15.6316 66.7436 16.048 66.4559 16.5605C66.2002 17.073 66.0724 17.6816 66.0724 18.3543C66.0724 19.027 66.2002 19.6356 66.4559 20.1481C66.7116 20.6606 67.0952 21.077 67.5427 21.3973C68.0222 21.6856 68.5336 21.8458 69.1089 21.8458ZM76.6524 24.3763V12.3002H79.593L79.6889 13.8698C80.0405 13.2932 80.52 12.8448 81.1273 12.4924C81.7346 12.1401 82.4378 11.9799 83.2369 11.9799C84.1319 11.9799 84.899 12.2041 85.5383 12.6206C86.2095 13.037 86.721 13.6456 87.0726 14.4144C87.4242 15.1831 87.6159 16.112 87.6159 17.1691V24.4083H84.4196V17.5855C84.4196 16.7527 84.2278 16.08 83.8442 15.5995C83.4607 15.1191 82.9492 14.8628 82.278 14.8628C81.7985 14.8628 81.383 14.9589 80.9994 15.1831C80.6478 15.4073 80.3602 15.6956 80.1364 16.1121C79.9127 16.4964 79.8168 16.9769 79.8168 17.4574V24.3763H76.6524ZM89.2141 24.3763V7.3353H92.4105V13.8378C92.858 13.2612 93.3694 12.8127 94.0087 12.4604C94.648 12.1401 95.3512 11.9479 96.1503 11.9479C96.9494 11.9479 97.6845 12.108 98.3558 12.4284C99.027 12.7487 99.6023 13.1971 100.114 13.7737C100.626 14.3503 101.009 15.023 101.297 15.7597C101.585 16.5285 101.712 17.3613 101.712 18.2582C101.712 19.1551 101.553 20.02 101.265 20.7887C100.977 21.5575 100.562 22.2302 100.05 22.8388C99.5384 23.4154 98.9311 23.8958 98.2279 24.2162C97.5247 24.5365 96.7895 24.6966 95.9585 24.6966C95.1594 24.6966 94.4562 24.5365 93.8169 24.1841C93.1776 23.8638 92.6662 23.3833 92.2507 22.7747L92.1548 24.3443L89.2141 24.3763ZM95.4151 21.8458C95.9904 21.8458 96.5019 21.6856 96.9813 21.3973C97.4288 21.077 97.7804 20.6606 98.0681 20.1481C98.3238 19.6356 98.4517 19.027 98.4517 18.3543C98.4517 17.6816 98.3238 17.073 98.0681 16.5605C97.8124 16.048 97.4288 15.6316 96.9813 15.3113C96.5338 14.9909 95.9904 14.8628 95.4151 14.8628C94.8397 14.8628 94.3283 15.023 93.8489 15.3113C93.4014 15.6316 93.0498 16.048 92.7621 16.5605C92.4744 17.073 92.3785 17.6816 92.3785 18.3543C92.3785 19.027 92.5064 19.6356 92.7621 20.1481C93.0178 20.6606 93.4014 21.077 93.8489 21.3973C94.3283 21.6856 94.8078 21.8458 95.4151 21.8458Z" fill="#FF385C"/>
</svg>
